<?xml version="1.0" encoding="utf-8"?>
<!DOCTYPE svg PUBLIC "-//W3C//DTD SVG 20010904//EN" "http://www.w3.org/TR/2001/REC-SVG-20010904/DTD/svg10.dtd">
<svg version="1.0" xmlns="http://www.w3.org/2000/svg" width="2000px" height="2000px" viewBox="0 0 2000 2000" preserveAspectRatio="xMidYMid meet">
 <g fill="#ffffff">
  <path d="M1351.5 1879.4 c-116.7 -2.8 -234 -28.1 -334 -72.3 -30.8 -13.7 -66.7 -34.2 -89 -50.9 -3.3 -2.5 -6.1 -4.6 -6.2 -4.7 -0.3 -0.1 83.8 -187 85.7 -190.6 0.9 -1.6 2.3 -0.9 14.8 7.5 34.3 23.3 68.6 41.2 110.7 57.9 68.3 27.1 133.7 42.1 204.5 46.8 22.3 1.5 76.4 0.6 95.5 -1.5 61.4 -6.9 100.4 -21.8 127.6 -48.7 18.9 -18.9 28 -40.1 28.2 -66.4 0.2 -16.4 -1.8 -25.6 -8.3 -39 -7.8 -16.2 -19 -28 -39.6 -41.7 -30.4 -20.2 -67.7 -33.4 -154.9 -54.8 -17.6 -4.3 -45.9 -11.3 -63 -15.5 -95.1 -23.3 -174.5 -48.3 -214.1 -67.6 -58.2 -28.3 -111.8 -77.8 -136.6 -126.4 -2.8 -5.5 -5.2 -10.1 -5.3 -10.3 -0.2 -0.2 -4.2 2.8 -9 6.7 -34.9 28.6 -78.7 51.9 -127.4 68.1 -164.4 54.4 -419.4 32.8 -568.2 -48 -23.6 -12.8 -59.9 -36.6 -59.9 -39.3 0 -0.5 21.9 -40.4 48.6 -88.7 l48.6 -87.8 8.2 6.2 c58 44.5 146.8 77.2 237 87.1 44.4 4.9 98.1 3.5 135.6 -3.6 44.2 -8.4 80.2 -24.5 106.2 -47.6 35.4 -31.4 56.9 -78.5 63.3 -138.3 1.4 -13.2 3.4 -78 2.4 -78 -0.2 0 -5.8 5.3 -12.4 11.8 -48 46.9 -107.8 76.4 -178.5 88.1 -42.9 7.1 -98.3 8.1 -142 2.5 -111 -14.1 -210.2 -67.5 -275.4 -148.3 -47.1 -58.2 -74.9 -124 -84.6 -199.6 -11.8 -92.3 4 -186.1 43.4 -258.3 49.6 -90.9 129.4 -156.7 231.1 -190.7 79.4 -26.5 177.7 -30.5 258 -10.4 27.3 6.8 58.2 18.8 80.7 31.4 30.9 17.3 61.7 42.5 83.8 68.9 l7.5 8.9 0.3 -54.6 0.2 -54.7 117 0 117 0 0 336.5 c0 185.1 0.2 336.5 0.4 336.5 0.2 0 3.9 -2.1 8.1 -4.6 4.3 -2.5 14.8 -8.1 23.5 -12.4 63.1 -31.6 131.2 -48.6 221 -55.2 22.7 -1.6 95.1 -1.6 117.5 0 106.2 7.9 202.1 32.2 281 71.2 20.4 10 41.2 21.5 44.3 24.5 1.2 1 -5.4 17.9 -37.8 97.6 -21.5 53 -39.3 96.5 -39.5 96.7 -0.2 0.2 -5.8 -2.6 -12.5 -6.3 -15.4 -8.5 -46.6 -23.6 -63.6 -30.9 -84.7 -36 -171.6 -52.5 -255.1 -48.7 -77.1 3.6 -125.1 19.4 -157 51.7 -13.3 13.6 -22.8 30 -27.4 47.4 -2.8 10.7 -3.8 33.8 -1.9 44.4 4.7 26.4 20.4 47.3 47.5 62.9 27.7 16 92.2 37.2 163.7 53.7 105.4 24.5 189.9 48.6 243.3 69.7 16.2 6.4 41.5 19.1 56.3 28.3 36.9 23.1 74 57.9 93.8 88 19.2 29.4 31.3 64.3 37.1 107 2.2 16.8 2.5 65.6 0.5 82 -7.5 60 -31.6 115.3 -70.4 161.5 -9.7 11.6 -30.7 31.9 -42.8 41.6 -69.7 55.4 -160.2 88.8 -269 99.3 -30.5 3 -77.2 4.7 -108.5 4z m-676.8 -1140.3 c47.9 -7.3 86.8 -25.6 120 -56.5 43.5 -40.4 65.6 -101.9 60.4 -168 -4.1 -51.9 -21.3 -92.1 -53.5 -125.4 -36.6 -37.8 -83 -59.5 -139.9 -65.2 -15.8 -1.6 -59.7 -0.8 -73 1.4 -40.7 6.7 -74.4 20.2 -102.1 41 -56.1 42.3 -82.8 100.1 -80.3 174.1 1.3 36.2 7.6 61.8 22.3 90.5 3.6 6.9 9.5 16.8 13.2 22 7.9 11.1 26.4 30.6 37.7 39.7 34.1 27.3 74.9 43.3 123 48.2 15.3 1.6 57 0.6 72.2 -1.8z"/>
 </g>
</svg>